<svg xmlns="http://www.w3.org/2000/svg" xml:space="preserve" width="1500" height="1500" fill="#fff" stroke="#fff" data-id="lg_yHivZaGYUK7eWBFocn" data-version="1" viewBox="0 0 1500 1500"><path fill="#000" stroke="transparent" d="M0 0h1500v1500H0z"/><g data-padding="20"><g transform="translate(-514.957 -526.762)scale(1.65096)"><path d="M515.374 811.28h-29.73v-90.7h29.73q12.3 0 21.42 4.03t15.07 10.68q5.94 6.65 8.87 14.67 2.92 8.01 2.92 15.97t-2.92 15.97q-2.93 8.02-8.87 14.67-5.95 6.65-15.07 10.68t-21.42 4.03m-18.24-80.42V801h17.03q10.48 0 17.64-3.27 7.16-3.28 11.59-8.57 4.44-5.29 6.4-11.44 1.97-6.15 1.97-11.79t-1.97-11.79q-1.96-6.15-6.4-11.44-4.43-5.29-11.59-8.57-7.16-3.27-17.64-3.27Zm90.67 80.42h-11.49v-90.7h22.78q8.57 0 14.71 3.42 6.15 3.43 9.53 9.02 3.38 5.6 3.38 12.25 0 7.46-4.24 13.4-4.23 5.95-11.59 8.77l30.44 43.84h-13.41l-28.82-41.72h-11.29Zm0-80.42v29.02h11.29q5.85 0 9.52-2.16 3.68-2.17 5.45-5.55 1.76-3.37 1.76-6.9 0-6.35-4.59-10.38-4.58-4.03-12.14-4.03Zm105.19 80.42h-44.75v-90.7h44.75v10.28h-33.26v19.35h26.2v10.28h-26.2V801h33.26Zm13.06 0h-11.59l38.4-93.73h.2l38.4 93.73h-12.19l-10.68-26.91h-31.75Zm21.77-54.42-7.15 17.94h24.09l-7.16-17.94q-1.31-3.43-2.52-6.75-1.21-3.33-2.42-7.97-1.21 4.64-2.32 7.92-1.11 3.27-2.52 6.8m62.66 54.42h-10.89v-93.73l42.13 58.06 41.32-58.06v93.73h-11.49v-41.92q0-4.14.11-9.02.1-4.89.7-11.14-3.12 5.54-6.1 9.73-2.97 4.18-5.39 7.71l-19.55 27.71-20.16-27.71q-2.52-3.53-5.39-7.71-2.87-4.19-6.1-9.73.61 6.25.71 11.14.1 4.88.1 9.02Zm136.33 0h-44.75v-90.7h44.75v10.28h-33.26v19.35h26.2v10.28h-26.2V801h33.26Zm24.16 0h-11.49v-90.7h22.78q8.56 0 14.71 3.42 6.15 3.43 9.53 9.02 3.37 5.6 3.37 12.25 0 7.46-4.23 13.4-4.23 5.95-11.59 8.77l30.44 43.84h-13.41l-28.82-41.72h-11.29Zm0-80.42v29.02h11.29q5.84 0 9.52-2.16 3.68-2.17 5.44-5.55 1.77-3.37 1.77-6.9 0-6.35-4.59-10.38-4.58-4.03-12.14-4.03Z"/><rect width="585.493" height="171.76" x="59.698" y="286.33" fill="none" rx="0" ry="0" transform="translate(413.75 396.63)"/><path d="M502.064 852.18h1.33v3.71q-.06.02-.71.25-.66.22-1.67.43-1.02.22-2.2.22-1.92 0-3.41-.67t-2.51-1.81q-1.03-1.14-1.55-2.59-.53-1.45-.53-3.02 0-2.38 1.01-4.18 1.01-1.81 2.81-2.83 1.81-1.02 4.2-1.02 1.12 0 2.15.24 1.02.23 2.41.66v3.59h-1.38l-.33-2.08q-.05-.19-.17-.34-.12-.14-.22-.19l-.09-.04q-.3-.14-.88-.34-.58-.21-1.37-.21-1.56 0-2.81.77-1.24.76-1.97 2.26t-.73 3.71q0 3.2 1.55 5.01 1.54 1.81 4.26 1.81.8 0 1.31-.19.5-.19.54-.2.35-.14.43-.46Zm17.08 3.28v1.03q-.14.01-.57.16-.42.15-.94.15-1.17 0-1.86-.4-.69-.39-1.06-1.03-.38-.64-.59-1.42-.22-.77-.45-1.54-.22-.76-.61-1.41-.39-.64-1.1-1.03-.7-.39-1.91-.39-.36 0-.68.02t-.35.02v5.23q0 .17.12.32.11.16.36.18l1.21.09v.99h-5.7v-.99l1.19-.09q.24-.02.37-.18.13-.15.13-.32v-12.22q0-.17-.13-.33t-.37-.17l-1.19-.09v-.99h5.98q2.6 0 4.11.9 1.5.9 1.5 3.17 0 1.2-.53 1.97-.54.76-1.4 1.2-.85.44-1.82.66 1.06.26 1.66.73.6.48.89 1.08.29.61.43 1.26l.29 1.26q.15.62.45 1.11.29.49.9.78.6.29 1.67.29m-5.03-10.23q0-1.47-.93-2.26-.94-.8-3.11-.8h-1.05v6.28q.05 0 .46.01t.68.01q1.91 0 2.93-.7 1.02-.71 1.02-2.54m17.67 7.36v3.83h-11.89v-.99l1.19-.09q.25-.02.37-.18.13-.15.13-.32v-12.22q0-.17-.13-.33-.12-.16-.37-.17l-1.19-.09v-.99h11.14v3.41h-1.38l-.35-1.88q-.01-.16-.13-.3-.12-.13-.28-.13h-4.97v5.7h3.44q.15 0 .28-.13t.13-.26l.24-1.57h1.16v5.11h-1.16l-.24-1.59q0-.12-.13-.27-.14-.14-.28-.14h-3.44v6.31h5.8q.14 0 .27-.17.13-.16.14-.27l.42-2.27Zm16.05 2.85v.99h-5.44v-.99l1.32-.11q.09 0 .16-.12.08-.12.08-.22 0-.04-.01-.05l-1.58-4.2h-5.29l-1.52 4.13q-.01.02-.01.07 0 .13.11.26.12.13.22.13l1.36.11v.99h-4.61v-.99l1.33-.28 5.34-14.48h1.72l5.31 14.15q.09.23.16.31t.32.12Zm-10.36-5.79h4.48l-2.25-6.01Zm23.85-8.61v3.66h-1.36l-.32-2.15q-.08-.39-.38-.39h-3.28v12.68q0 .17.12.32.11.16.36.18l1.47.09v.99h-6.21v-.99l1.46-.09q.25-.02.37-.18.11-.15.11-.32v-12.68h-3.3q-.33 0-.39.39l-.31 2.15h-1.33v-3.66Zm12.98 11.55v3.83h-11.89v-.99l1.19-.09q.25-.02.38-.18.12-.15.12-.32v-12.22q0-.17-.12-.33-.13-.16-.38-.17l-1.19-.09v-.99h11.14v3.41h-1.38l-.35-1.88q-.01-.16-.13-.3-.12-.13-.28-.13h-4.97v5.7h3.44q.15 0 .28-.13t.13-.26l.24-1.57h1.16v5.11h-1.16l-.24-1.59q0-.12-.13-.27-.14-.14-.28-.14h-3.44v6.31h5.8q.14 0 .27-.17.13-.16.14-.27l.42-2.27Zm25.18-11.55v.99l-1.24.22-4.61 7.63v4.96q0 .17.12.32.13.16.36.18l1.47.09v.99h-6.19v-.99l1.42-.09q.25-.02.38-.18.13-.15.13-.32v-4.61l-4.4-7.94-1.33-.26v-.99h5.43v.99l-1.15.11q-.31.04-.31.27 0 .11.04.19l3.24 5.98 3.54-5.92q.05-.07.05-.15 0-.28-.31-.33l-1.29-.15v-.99Zm16.08 7.7q0 1.67-.53 3.12-.53 1.46-1.52 2.56-.98 1.11-2.36 1.74-1.37.63-3.05.63-2.25 0-3.93-1.06-1.69-1.06-2.63-2.88-.94-1.83-.94-4.13 0-1.68.52-3.14.52-1.45 1.51-2.56.98-1.11 2.36-1.73 1.37-.62 3.09-.62 1.7 0 3.07.63 1.38.63 2.36 1.74.99 1.11 1.52 2.57t.53 3.13m-2.65.02q0-1.87-.54-3.4-.53-1.54-1.6-2.46t-2.67-.92q-1.66 0-2.74.92-1.08.93-1.6 2.46-.53 1.53-.53 3.36t.53 3.38q.52 1.55 1.59 2.49 1.07.93 2.69.93 1.66 0 2.73-.93 1.08-.94 1.61-2.48.53-1.53.53-3.35m19.25-7.71v.99l-1.34.09q-.24.01-.36.17t-.12.33v8.7q0 2.82-1.5 4.14-1.51 1.33-4.38 1.33-2.83 0-4.21-1.39-1.39-1.38-1.39-4.08v-8.7q0-.17-.11-.33-.12-.16-.37-.17l-1.22-.09v-.99h5.83v.99l-1.31.09q-.24.01-.36.17t-.12.33v8.11q0 1.34.3 2.36.31 1.02 1.15 1.59.83.57 2.42.57t2.44-.6q.84-.6 1.16-1.62.32-1.03.32-2.3v-8.11q0-.17-.13-.33t-.37-.17l-1.31-.09v-.99Zm15.48 14.41v1.03q-.14.01-.57.16-.42.15-.94.15-1.17 0-1.86-.4-.69-.39-1.06-1.03-.38-.64-.6-1.42l-.44-1.54q-.22-.76-.61-1.41-.4-.64-1.1-1.03-.71-.39-1.91-.39-.36 0-.68.02t-.35.02v5.23q0 .17.11.32.12.16.37.18l1.21.09v.99h-5.7v-.99l1.19-.09q.24-.02.37-.18.13-.15.13-.32v-12.22q0-.17-.13-.33t-.37-.17l-1.19-.09v-.99h5.98q2.6 0 4.11.9 1.5.9 1.5 3.17 0 1.2-.53 1.97-.54.76-1.4 1.2-.85.44-1.83.66 1.07.26 1.66.73.6.48.89 1.08.3.61.44 1.26l.29 1.26q.15.62.44 1.11.3.49.9.78.61.29 1.68.29m-5.03-10.23q0-1.47-.94-2.26-.93-.8-3.1-.8h-1.05v6.28q.05 0 .46.01t.68.01q1.91 0 2.93-.7 1.02-.71 1.02-2.54m30.41 3.47q0 1.49-.44 2.88-.43 1.39-1.38 2.48-.94 1.09-2.46 1.72-1.52.64-3.68.64h-6.36v-.99l1.21-.09q.24-.02.37-.18.13-.15.13-.32v-12.22q0-.17-.13-.33t-.37-.17l-1.21-.09v-.99h5.91q2.4 0 4.3.81 1.91.81 3.01 2.5t1.1 4.35m-2.6.04q0-2.41-.73-3.85-.73-1.45-2.07-2.1t-3.15-.65h-1.74v13.18l1.85-.02q1.77-.03 3.08-.68t2.04-2.09q.72-1.43.72-3.79m18.35 6.72v1.03q-.14.01-.57.16-.42.15-.94.15-1.17 0-1.86-.4-.69-.39-1.06-1.03-.38-.64-.59-1.42-.22-.77-.45-1.54-.22-.76-.61-1.41-.39-.64-1.1-1.03-.7-.39-1.91-.39-.36 0-.68.02t-.35.02v5.23q0 .17.12.32.11.16.36.18l1.21.09v.99h-5.7v-.99l1.19-.09q.24-.02.37-.18.13-.15.13-.32v-12.22q0-.17-.13-.33t-.37-.17l-1.19-.09v-.99h5.98q2.6 0 4.11.9 1.5.9 1.5 3.17 0 1.2-.53 1.97-.54.76-1.4 1.2-.85.44-1.82.66 1.06.26 1.66.73.6.48.89 1.08.29.61.43 1.26l.29 1.26q.15.62.45 1.11.29.49.9.78.6.29 1.67.29m-5.03-10.23q0-1.47-.93-2.26-.94-.8-3.11-.8h-1.05v6.28q.05 0 .46.01t.68.01q1.91 0 2.93-.7 1.02-.71 1.02-2.54m17.66 7.36v3.83h-11.89v-.99l1.19-.09q.25-.02.37-.18.13-.15.13-.32v-12.22q0-.17-.13-.33-.12-.16-.37-.17l-1.19-.09v-.99h11.14v3.41h-1.38l-.35-1.88q-.01-.16-.13-.3-.12-.13-.28-.13h-4.97v5.7h3.44q.15 0 .28-.13t.13-.26l.24-1.57h1.16v5.11h-1.16l-.24-1.59q0-.12-.13-.27-.14-.14-.28-.14h-3.44v6.31h5.8q.14 0 .27-.17.13-.16.14-.27l.42-2.27Zm16.06 2.85v.99h-5.44v-.99l1.32-.11q.09 0 .16-.12.08-.12.08-.22 0-.04-.01-.05l-1.58-4.2h-5.29l-1.52 4.13q-.01.02-.01.07 0 .13.11.26.12.13.22.13l1.36.11v.99h-4.61v-.99l1.33-.28 5.34-14.48h1.72l5.31 14.15q.09.23.16.31t.33.12Zm-10.36-5.79h4.48l-2.25-6.01Zm29.85 5.78v.99h-5.79v-.99l1.22-.09q.25-.02.37-.18.13-.15.13-.32v-12.63l-5.27 14.21h-1.14l-5.09-14v12.42q0 .17.13.32.13.16.37.18l1.31.09v.99h-4.95v-.99l1.31-.09q.24-.02.36-.18.12-.15.12-.32v-12.22q0-.17-.12-.33t-.36-.17l-1.31-.09v-.99h5.13v.62l4.15 11.25 4.16-11.19v-.68h5.27v.99l-1.25.09q-.24.01-.37.17t-.13.33v12.22q0 .17.13.32.13.16.37.18Zm32.12-14.38v.99l-1.4.26-3.5 14.5h-1.68l-3.83-12.7-3.74 12.7h-1.66l-3.74-14.5-1.33-.26v-.99h5.25v.99l-1.37.13q-.25.03-.25.34 0 .03.02.12l2.73 10.34 3.59-11.92h1.77l3.69 12.29 2.54-10.71q.01-.02.01-.08 0-.35-.33-.38l-1.45-.13v-.99Zm16.09 7.69q0 1.67-.53 3.12-.53 1.46-1.52 2.56-.98 1.11-2.36 1.74-1.37.63-3.05.63-2.25 0-3.94-1.06-1.68-1.06-2.62-2.88-.94-1.83-.94-4.13 0-1.68.52-3.14.52-1.45 1.51-2.56.98-1.11 2.36-1.73 1.37-.62 3.08-.62t3.08.63q1.38.63 2.36 1.74.99 1.11 1.52 2.57t.53 3.13m-2.65.02q0-1.87-.54-3.4-.54-1.54-1.6-2.46-1.07-.92-2.67-.92-1.66 0-2.74.92-1.08.93-1.6 2.46-.53 1.53-.53 3.36t.53 3.38q.52 1.55 1.59 2.49 1.07.93 2.69.93 1.66 0 2.73-.93 1.08-.94 1.61-2.48.53-1.53.53-3.35m18.42 6.7v1.03q-.15.01-.57.16-.43.15-.94.15-1.18 0-1.87-.4-.69-.39-1.06-1.03-.38-.64-.59-1.42-.22-.77-.45-1.54-.22-.76-.61-1.41-.39-.64-1.1-1.03-.7-.39-1.91-.39-.36 0-.68.02t-.35.02v5.23q0 .17.12.32.11.16.36.18l1.21.09v.99h-5.7v-.99l1.19-.09q.25-.02.37-.18.13-.15.13-.32v-12.22q0-.17-.13-.33-.12-.16-.37-.17l-1.19-.09v-.99h5.98q2.61 0 4.11.9 1.51.9 1.51 3.17 0 1.2-.54 1.97-.54.76-1.39 1.2-.86.44-1.83.66 1.06.26 1.66.73.6.48.89 1.08.29.61.43 1.26.15.65.3 1.26.14.62.44 1.11.29.49.9.78.6.29 1.68.29m-5.04-10.23q0-1.47-.93-2.26-.94-.8-3.11-.8h-1.05v6.28q.06 0 .46.01.41.01.68.01 1.91 0 2.93-.7 1.02-.71 1.02-2.54m16.79 6.92v4.27h-11.15v-.99l1.33-.09q.25-.02.37-.18.11-.15.11-.32v-12.22q0-.17-.11-.33-.12-.16-.37-.17l-1.33-.09v-.99h5.85v.99l-1.22.09q-.24.01-.37.17t-.13.33v12.68h4.81q.16 0 .33-.13.16-.12.18-.26l.36-2.76Zm15.47-3.45q0 1.49-.44 2.88-.43 1.39-1.38 2.48-.94 1.09-2.46 1.72-1.52.64-3.68.64h-6.36v-.99l1.21-.09q.24-.02.37-.18.13-.15.13-.32v-12.22q0-.17-.13-.33t-.37-.17l-1.21-.09v-.99h5.91q2.4 0 4.3.81 1.91.81 3.01 2.5t1.1 4.35m-2.6.04q0-2.41-.73-3.85-.73-1.45-2.07-2.1t-3.15-.65h-1.74v13.18l1.85-.02q1.77-.03 3.08-.68t2.04-2.09q.72-1.43.72-3.79"/><rect width="384.489" height="27.12" x="160.2" y="358.65" fill="none" rx="0" ry="0" transform="translate(330.22 477.96)"/></g><path fill="transparent" stroke="transparent" stroke-width="1.709" d="M250 595.3h1000v309.4H250z"/></g></svg>