<svg xmlns="http://www.w3.org/2000/svg" xml:space="preserve" width="1500" height="163" data-id="lg_Ur4RQQwbnqo2k7Ohev" data-version="1" viewBox="0 0 1500 163"><g data-padding="20"><g transform="translate(10 2.932)scale(.96403)"><rect width="585.493" height="171.76" x="94.213" y="-416.648" fill="none" rx="0" ry="0" transform="matrix(.95 0 0 .95 400 395.73)"/><path fill="#b2d0c4" d="M531.242 121.819H501.66v-90.25h29.583q12.236 0 21.31 4.018 9.071 4.009 14.99 10.621 5.918 6.621 8.825 14.592 2.907 7.97 2.907 15.894t-2.907 15.893q-2.907 7.98-8.825 14.592-5.919 6.621-14.992 10.63-9.072 4.01-21.308 4.01M513.088 41.8v69.797h16.947q10.431 0 17.547-3.259 7.125-3.259 11.533-8.531 4.418-5.263 6.374-11.381 1.948-6.118 1.948-11.733 0-5.614-1.947-11.732-1.957-6.118-6.375-11.381-4.408-5.263-11.533-8.522-7.115-3.258-17.546-3.258Zm90.22 80.019H591.87v-90.25h22.667q8.522 0 14.64 3.41t9.471 8.978q3.363 5.567 3.363 12.179 0 7.429-4.208 13.338-4.218 5.918-11.533 8.73l30.286 43.614h-13.338l-28.68-41.515h-11.23Zm0-80.019v28.88h11.23q5.813 0 9.471-2.157 3.666-2.156 5.414-5.51 1.758-3.363 1.758-6.878 0-6.317-4.56-10.326-4.57-4.009-12.084-4.009Zm104.662 80.019h-44.526v-90.25h44.526V41.8h-33.098v19.257h26.077v10.222h-26.077v40.317h33.098Zm12.996 0h-11.533l38.21-93.252h.2l38.208 93.251h-12.14l-10.622-26.77h-31.588Zm21.66-54.15-7.115 17.85h23.96l-7.117-17.85q-1.3-3.411-2.508-6.717-1.206-3.306-2.403-7.923-1.207 4.617-2.309 7.875t-2.508 6.764m62.33 54.151h-10.83V28.567l41.913 57.76 41.116-57.76v93.251h-11.429V80.104q0-4.113.095-8.968.105-4.864.703-11.086-3.106 5.519-6.07 9.68-2.955 4.161-5.358 7.667l-19.456 27.578-20.055-27.578q-2.508-3.506-5.367-7.667t-6.07-9.68q.607 6.222.702 11.086.105 4.855.105 8.968Zm135.65 0H896.08v-90.25h44.526V41.8h-33.098v19.257h26.077v10.222h-26.077v40.317h33.098Zm24.017 0h-11.429v-90.25h22.667q8.522 0 14.64 3.41t9.471 8.978q3.363 5.567 3.363 12.179 0 7.429-4.218 13.338-4.208 5.918-11.523 8.73l30.276 43.614h-13.338l-28.67-41.515h-11.239Zm0-80.019v28.88h11.238q5.814 0 9.472-2.157t5.415-5.51q1.757-3.363 1.757-6.878 0-6.317-4.57-10.326-4.56-4.009-12.074-4.009Z"/><rect width="373.149" height="27.12" x="200.385" y="-344.328" fill="none" rx="0" ry="0" transform="matrix(.95 0 0 .95 299.971 451.41)"/><path fill="#b2d0c4" d="M501.931 138.91h1.33v3.695l-.712.238q-.646.228-1.662.437t-2.185.209q-1.91 0-3.392-.656-1.482-.665-2.498-1.805-1.017-1.13-1.54-2.574t-.522-3.012q0-2.356.998-4.161.997-1.796 2.802-2.812 1.796-1.007 4.18-1.007 1.112 0 2.128.228 1.017.237 2.403.665v3.572h-1.367l-.342-2.071q-.038-.19-.162-.333-.123-.152-.228-.19l-.085-.047q-.285-.133-.865-.342-.58-.2-1.368-.2-1.548 0-2.793.76t-1.966 2.252-.722 3.686q0 3.182 1.54 4.987 1.528 1.805 4.236 1.805.807 0 1.301-.19.504-.19.542-.199.351-.133.427-.456Zm17.024 3.248v1.026q-.142.01-.57.152-.418.143-.93.143-1.169 0-1.853-.39t-1.065-1.026q-.37-.637-.588-1.406l-.437-1.53q-.229-.769-.618-1.406-.39-.646-1.083-1.035-.703-.39-1.91-.39-.35 0-.674.029-.314.019-.352.019v5.196q0 .171.124.323.114.162.361.181l1.197.095v.978h-5.662v-.978l1.178-.095q.247-.019.37-.18.133-.153.133-.324v-12.15q0-.171-.133-.333-.123-.161-.37-.17l-1.178-.086v-.988h5.947q2.593 0 4.085.902 1.501.893 1.501 3.154 0 1.188-.532 1.957-.54.76-1.387 1.197-.855.428-1.824.656 1.054.256 1.653.731.598.466.883 1.074.295.598.437 1.244t.295 1.254q.142.618.437 1.102.295.494.893.78.598.294 1.672.294m-5.006-10.184q0-1.463-.93-2.252-.933-.788-3.089-.788h-1.054v6.241q.057 0 .465.01t.675.01q1.9 0 2.916-.694 1.017-.703 1.017-2.527m17.556 7.344v3.81h-11.828v-.979l1.178-.095q.247-.019.38-.18.124-.152.124-.323V129.4q0-.171-.123-.332-.134-.162-.38-.171l-1.179-.086v-.988h11.077v3.401h-1.368l-.342-1.871q-.009-.172-.133-.305t-.285-.133h-4.94v5.682h3.42q.152 0 .285-.133.124-.133.124-.257l.237-1.567h1.16v5.082h-1.16l-.237-1.577q0-.123-.133-.266-.133-.142-.276-.142h-3.42v6.27h5.767q.142 0 .275-.162.124-.161.143-.266l.41-2.261Zm15.998 2.821v.978h-5.425v-.978l1.311-.114q.095 0 .171-.123.076-.114.076-.21 0-.047-.01-.056l-1.567-4.18h-5.272l-1.51 4.113q-.01.019-.01.067 0 .133.113.256.114.133.22.133l1.348.114v.978h-4.588v-.978l1.32-.285 5.31-14.402h1.72l5.282 14.07q.095.237.162.313.066.076.322.124Zm-10.317-5.776h4.455l-2.232-5.975Zm23.712-8.54v3.648h-1.349l-.323-2.137q-.076-.39-.38-.39h-3.259v12.607q0 .17.114.323.114.161.361.18l1.454.095v.978h-6.175v-.978l1.463-.095q.237-.019.361-.18.114-.152.114-.323v-12.607h-3.287q-.333 0-.39.39l-.313 2.137h-1.32v-3.648Zm12.93 11.495v3.81h-11.819v-.979l1.178-.095q.247-.019.37-.18.133-.152.133-.323V129.4q0-.171-.133-.332-.123-.162-.37-.171l-1.178-.086v-.988h11.077v3.401h-1.377l-.343-1.871q-.009-.172-.133-.305t-.275-.133h-4.95v5.682h3.42q.162 0 .285-.133.133-.133.133-.257l.228-1.567h1.16v5.082h-1.16l-.228-1.577q0-.123-.142-.266-.133-.142-.276-.142h-3.42v6.27h5.767q.152 0 .275-.162.133-.161.143-.266l.41-2.261Zm25.051-11.495v.988l-1.235.219-4.589 7.59v4.93q0 .172.124.324.123.161.351.18l1.463.095v.978h-6.156v-.978l1.415-.095q.238-.019.371-.18.123-.152.123-.323v-4.58l-4.37-7.894-1.33-.266v-.988h5.415v.988l-1.149.105q-.314.047-.314.265 0 .114.048.19l3.22 5.957 3.525-5.89q.047-.076.047-.152 0-.275-.313-.323l-1.283-.152v-.988Zm15.997 7.666q0 1.653-.532 3.107-.532 1.444-1.51 2.546-.979 1.102-2.347 1.729-1.368.617-3.04.617-2.232 0-3.914-1.045-1.672-1.054-2.612-2.869-.93-1.814-.93-4.113 0-1.662.512-3.116.522-1.444 1.501-2.546t2.346-1.72q1.378-.617 3.078-.617 1.691 0 3.06.617 1.367.627 2.346 1.739.978 1.102 1.51 2.556t.532 3.116m-2.64.018q0-1.862-.533-3.391-.532-1.53-1.596-2.441-1.064-.913-2.66-.913-1.643 0-2.717.922-1.073.912-1.605 2.441-.523 1.52-.523 3.335 0 1.834.523 3.372.532 1.54 1.586 2.47 1.064.931 2.68.931 1.652 0 2.716-.93 1.074-.931 1.596-2.461.532-1.53.532-3.334m19.144-7.696v.988l-1.33.085q-.247.01-.36.172t-.115.332v8.654q0 2.812-1.5 4.123-1.493 1.311-4.362 1.311-2.812 0-4.19-1.368-1.377-1.377-1.377-4.066v-8.654q0-.171-.114-.332-.114-.162-.36-.171l-1.217-.086v-.988h5.805v.988l-1.302.085q-.247.01-.36.172-.124.161-.124.332v8.066q0 1.339.304 2.356.304 1.007 1.14 1.577.826.57 2.413.57 1.577 0 2.422-.599.836-.598 1.16-1.615.313-1.026.313-2.29v-8.065q0-.171-.124-.332-.133-.162-.38-.171l-1.3-.086v-.988Zm15.408 14.345v1.026q-.152.01-.57.152-.428.143-.94.143-1.169 0-1.853-.39t-1.055-1.026-.589-1.406-.437-1.53q-.228-.769-.618-1.406-.389-.646-1.092-1.035-.703-.39-1.9-.39-.36 0-.674.029-.314.019-.352.019v5.196q0 .171.114.323.124.162.361.181l1.206.095v.978h-5.67v-.978l1.187-.095q.237-.019.37-.18.124-.153.124-.324v-12.15q0-.171-.124-.333-.133-.161-.37-.17l-1.188-.086v-.988h5.947q2.593 0 4.094.902 1.501.893 1.501 3.154 0 1.188-.54 1.957-.533.76-1.388 1.197-.846.428-1.815.656 1.055.256 1.653.731.6.466.884 1.074.285.598.437 1.244.143.646.285 1.254.143.618.437 1.102.295.494.903.78.598.294 1.672.294m-5.016-10.184q0-1.463-.93-2.252-.923-.788-3.089-.788h-1.045v6.241q.057 0 .466.01.4.01.674.01 1.9 0 2.917-.694 1.007-.703 1.007-2.527m30.267 3.468q0 1.492-.428 2.869-.437 1.387-1.377 2.47t-2.45 1.71q-1.51.637-3.659.637h-6.336v-.979l1.206-.095q.247-.019.371-.18.133-.152.133-.323V129.4q0-.171-.133-.332-.124-.162-.37-.171l-1.207-.086v-.988h5.88q2.394 0 4.285.808 1.9.807 2.992 2.489t1.093 4.322m-2.584.048q0-2.394-.722-3.838-.732-1.444-2.062-2.09t-3.135-.646h-1.738v13.119l1.852-.028q1.758-.02 3.06-.665 1.301-.656 2.023-2.081t.722-3.771m18.26 6.668v1.026q-.143.01-.56.152-.429.143-.942.143-1.168 0-1.852-.39t-1.055-1.026q-.38-.637-.589-1.406-.219-.77-.447-1.53-.218-.769-.608-1.406-.389-.646-1.092-1.035-.703-.39-1.9-.39-.36 0-.674.029-.324.019-.352.019v5.196q0 .171.114.323.114.162.361.181l1.206.095v.978h-5.67v-.978l1.187-.095q.237-.019.37-.18.123-.153.123-.324v-12.15q0-.171-.123-.333-.133-.161-.37-.17l-1.188-.086v-.988h5.947q2.593 0 4.094.902 1.492.893 1.492 3.154 0 1.188-.532 1.957-.532.76-1.387 1.197-.846.428-1.815.656 1.055.256 1.653.731.59.466.884 1.074.285.598.428 1.244l.294 1.254q.143.618.437 1.102.295.494.903.78.598.294 1.662.294m-5.006-10.184q0-1.463-.93-2.252t-3.089-.788h-1.045v6.241q.057 0 .456.01.41.01.675.01 1.91 0 2.916-.694 1.017-.703 1.017-2.527m17.565 7.344v3.81h-11.818v-.979l1.178-.095q.247-.019.37-.18.133-.152.133-.323V129.4q0-.171-.133-.332-.123-.162-.37-.171l-1.178-.086v-.988h11.077v3.401h-1.368l-.35-1.871q-.01-.172-.134-.305t-.276-.133h-4.94v5.682h3.41q.162 0 .286-.133.133-.133.133-.257l.228-1.567h1.16v5.082h-1.16l-.228-1.577q0-.123-.133-.266-.133-.142-.285-.142h-3.41v6.27h5.766q.142 0 .266-.162.133-.161.142-.266l.41-2.261Zm15.99 2.821v.978h-5.426v-.978l1.32-.114q.086 0 .162-.123.076-.114.076-.21 0-.047-.01-.056l-1.567-4.18h-5.263l-1.52 4.113q-.01.019-.01.067 0 .133.114.256.124.133.22.133l1.348.114v.978h-4.589v-.978l1.33-.285 5.311-14.402h1.71l5.291 14.07q.086.237.152.313.067.076.323.124Zm-10.309-5.776h4.456l-2.243-5.975Zm29.678 5.786v.978h-5.757v-.978l1.216-.095q.247-.019.371-.18.133-.152.133-.323v-12.569l-5.244 14.146h-1.14l-5.064-13.927v12.35q0 .17.133.323.124.161.371.18l1.301.095v.978h-4.93v-.978l1.301-.095q.247-.019.361-.18.114-.152.114-.323V129.4q0-.171-.114-.332-.114-.162-.36-.171l-1.302-.086v-.988h5.111v.617l4.132 11.201 4.123-11.134v-.684h5.244v.988l-1.235.085q-.247.01-.37.171-.133.162-.133.333v12.15q0 .171.133.323.123.162.37.181Zm31.968-14.336v.988l-1.396.266-3.487 14.411h-1.662l-3.81-12.635-3.733 12.636h-1.644l-3.724-14.412-1.32-.266v-.988h5.225v.988l-1.359.133q-.256.028-.256.332 0 .029.02.124l2.716 10.288 3.572-11.865h1.757l3.677 12.226 2.526-10.649q.01-.029.01-.076 0-.352-.333-.38l-1.434-.133v-.988Zm16.016 7.677q0 1.652-.532 3.106-.522 1.444-1.51 2.546-.978 1.102-2.347 1.729-1.368.617-3.04.617-2.232 0-3.914-1.045-1.672-1.054-2.603-2.869-.94-1.814-.94-4.113 0-1.662.523-3.116.512-1.444 1.491-2.546.978-1.102 2.346-1.72 1.378-.617 3.078-.617 1.691 0 3.06.617 1.367.627 2.346 1.739.988 1.102 1.51 2.556.532 1.453.532 3.116m-2.64.018q0-1.862-.533-3.391-.532-1.53-1.596-2.441-1.064-.913-2.66-.913-1.643 0-2.717.922-1.073.912-1.596 2.441-.532 1.52-.532 3.335 0 1.834.532 3.372.523 1.54 1.587 2.47 1.054.931 2.67.931 1.652 0 2.716-.93 1.074-.931 1.606-2.461.522-1.53.522-3.334m18.326 6.649v1.026q-.142.01-.57.152-.418.143-.93.143-1.169 0-1.853-.39t-1.064-1.026q-.37-.637-.59-1.406-.218-.77-.437-1.53-.218-.769-.608-1.406-.389-.646-1.092-1.035-.703-.39-1.91-.39-.35 0-.674.029-.313.019-.342.019v5.196q0 .171.114.323.114.162.361.181l1.197.095v.978h-5.662v-.978l1.178-.095q.247-.019.37-.18.133-.153.133-.324v-12.15q0-.171-.133-.333-.123-.161-.37-.17l-1.178-.086v-.988h5.947q2.593 0 4.085.902 1.501.893 1.501 3.154 0 1.188-.532 1.957-.532.76-1.387 1.197-.855.428-1.824.656 1.064.256 1.653.731.598.466.884 1.074.294.598.437 1.244.142.646.294 1.254.143.618.437 1.102.295.494.893.78.608.294 1.672.294m-5.006-10.184q0-1.463-.93-2.252t-3.089-.788h-1.045v6.241q.048 0 .456.01t.675.01q1.9 0 2.916-.694 1.017-.703 1.017-2.527m16.71 6.907v4.246h-11.086v-.978l1.32-.095q.247-.019.361-.18.114-.152.114-.323V129.4q0-.171-.114-.332-.114-.162-.36-.171l-1.32-.086v-.988h5.813v.988l-1.207.085q-.247.01-.38.172-.123.161-.123.332v12.606h4.788q.152 0 .323-.114.161-.123.18-.275l.361-2.736Zm15.38-3.439q0 1.492-.427 2.869-.437 1.387-1.377 2.47t-2.45 1.71q-1.512.637-3.659.637h-6.337v-.979l1.207-.095q.247-.019.37-.18.133-.152.133-.323V129.4q0-.171-.133-.332-.123-.162-.37-.171l-1.207-.086v-.988h5.881q2.394 0 4.284.808 1.891.807 2.993 2.489 1.092 1.681 1.092 4.322m-2.584.048q0-2.394-.722-3.838-.73-1.444-2.06-2.09t-3.136-.646h-1.739v13.119l1.853-.028q1.757-.02 3.06-.665 1.3-.656 2.022-2.081t.722-3.771"/></g><path fill="transparent" stroke="transparent" d="M472 0h556v163H472z"/></g></svg>